<?xml version="1.0" standalone="no"?>
<!DOCTYPE svg PUBLIC "-//W3C//DTD SVG 20010904//EN"
 "http://www.w3.org/TR/2001/REC-SVG-20010904/DTD/svg10.dtd">
<svg version="1.0" xmlns="http://www.w3.org/2000/svg"
 width="512.000000pt" height="512.000000pt" viewBox="0 0 512.000000 512.000000"
 preserveAspectRatio="xMidYMid meet">
<metadata>
Created by potrace 1.14, written by Peter Selinger 2001-2017
</metadata>
<g transform="translate(0.000000,512.000000) scale(0.100000,-0.100000)"
fill="#000000" stroke="none">
<path d="M1765 4893 c-502 -304 -1445 -874 -1471 -888 l-21 -11 0 -1454 0
-1455 941 -372 c517 -205 1136 -449 1375 -544 238 -94 436 -168 440 -163 3 6
82 69 174 143 93 73 178 141 190 151 12 10 114 91 227 181 113 90 404 321 646
515 l441 352 8 59 c11 82 68 491 80 573 8 51 17 112 20 135 14 116 19 145 25
145 8 0 3 56 -6 72 -4 6 -2 8 4 4 7 -4 8 3 2 24 -5 19 -5 30 1 30 6 0 7 5 2
13 -4 6 -9 37 -9 67 -1 30 -5 141 -8 245 -6 182 -11 322 -21 665 -2 85 -7 243
-10 350 -3 107 -8 244 -9 303 -2 60 -8 112 -12 116 -5 4 -81 34 -169 65 -88
32 -254 93 -370 136 -543 202 -2062 759 -2080 763 -14 3 -134 -64 -390 -220z
m402 90 c3 -10 46 -101 95 -202 49 -101 87 -186 84 -188 -2 -3 -35 -13 -73
-23 -117 -30 -537 -148 -555 -155 -17 -7 -27 10 -10 17 4 2 19 19 32 38 13 19
103 140 199 269 97 128 180 240 186 247 14 19 34 17 42 -3z m210 -58 c98 -36
194 -72 213 -80 90 -36 257 -95 268 -95 7 0 12 -3 12 -7 0 -5 -107 -37 -238
-72 -130 -35 -242 -66 -247 -68 -6 -2 -54 84 -107 192 -53 107 -93 195 -88
195 5 0 89 -29 187 -65z m-399 -96 c-51 -68 -143 -192 -205 -276 -89 -121
-119 -153 -145 -162 -18 -5 -222 -62 -452 -126 -231 -64 -423 -118 -428 -121
-4 -3 -8 -2 -8 3 0 4 51 38 113 74 61 36 285 171 497 299 212 128 453 273 535
323 83 49 156 96 164 103 37 34 14 -3 -71 -117z m1114 -176 c8 -10 58 -81 110
-158 211 -310 254 -374 323 -475 264 -387 326 -483 319 -490 -5 -4 -128 -88
-274 -186 -146 -97 -294 -197 -329 -221 -35 -24 -67 -43 -71 -43 -4 0 -15 17
-24 38 -9 20 -33 69 -54 107 -21 39 -76 142 -122 230 -46 88 -110 210 -142
270 -32 61 -70 133 -84 161 l-26 50 92 205 c51 112 108 237 126 277 19 40 34
74 34 76 0 2 18 43 40 90 41 88 55 100 82 69z m-186 -45 c-59 -138 -239 -535
-246 -541 -4 -4 -39 54 -78 130 -39 76 -90 175 -114 220 -23 45 -41 84 -38 86
6 6 459 135 478 136 9 1 9 -6 -2 -31z m499 -63 c50 -18 331 -121 625 -230 294
-109 557 -205 584 -215 l48 -17 -220 -149 c-122 -82 -281 -189 -354 -239 -73
-49 -137 -91 -143 -93 -5 -1 -101 132 -212 295 -111 164 -255 377 -321 473
-65 96 -127 187 -137 203 l-18 28 29 -12 c16 -6 70 -26 119 -44z m-910 -226
c48 -94 102 -199 120 -231 l32 -60 -17 -37 c-10 -20 -71 -153 -135 -296 -136
-304 -149 -332 -236 -524 l-65 -146 -40 -1 c-64 -2 -374 -15 -439 -19 -33 -2
-127 -6 -210 -10 -82 -3 -182 -8 -221 -10 -67 -4 -73 -3 -95 23 -23 26 -103
123 -124 150 -11 14 -13 17 -75 92 -25 30 -51 63 -59 72 -12 16 0 36 101 175
339 467 421 580 436 602 9 13 43 58 74 100 l57 76 398 111 c219 61 401 110
404 108 3 -2 45 -81 94 -175z m-988 -131 c-51 -68 -165 -226 -471 -650 -71
-98 -131 -178 -135 -177 -8 1 -484 580 -479 584 3 3 484 139 528 150 14 3 266
74 485 135 55 16 106 29 113 29 7 1 -12 -32 -41 -71z m3174 -150 c4 -126 8
-246 13 -424 4 -116 8 -271 11 -345 3 -74 7 -219 10 -324 3 -104 8 -262 11
-350 3 -98 2 -156 -4 -150 -5 6 -62 89 -127 185 -65 96 -146 216 -180 265 -34
50 -106 155 -160 235 -54 80 -145 213 -201 296 l-103 151 172 116 c95 63 255
172 357 241 102 69 188 126 193 126 4 0 7 -10 8 -22z m-1921 -231 c24 -45 55
-104 70 -132 15 -27 56 -104 90 -170 155 -297 184 -353 207 -392 l25 -43 -39
-1 c-21 -1 -56 -3 -78 -4 -35 -2 -163 -8 -435 -20 -47 -3 -131 -6 -187 -9
l-102 -5 19 42 c36 82 109 246 230 512 67 149 126 280 131 293 5 13 13 21 18
18 5 -4 28 -43 51 -89z m-2250 -138 c58 -71 115 -142 128 -157 37 -43 54 -64
97 -117 48 -60 64 -80 87 -107 10 -11 15 -26 11 -32 -6 -10 -33 -47 -165 -231
-34 -47 -44 -55 -46 -40 -5 23 -172 621 -207 738 -12 42 -20 77 -16 76 3 0 53
-59 111 -130z m-86 -52 c14 -51 53 -189 86 -307 34 -118 63 -222 65 -230 1 -8
11 -41 20 -74 17 -57 15 -116 -10 -270 -9 -57 -29 -194 -39 -268 -3 -18 -12
-82 -21 -143 -8 -60 -17 -123 -20 -140 -2 -16 -7 -52 -11 -80 -3 -27 -8 -59
-10 -70 -2 -11 -7 -40 -10 -65 -5 -43 -20 -145 -29 -200 -5 -33 -35 -245 -41
-290 -8 -65 -14 -104 -18 -107 -2 -2 -3 533 -3 1188 0 655 4 1182 9 1170 4
-12 19 -63 32 -114z m3492 -172 c26 -38 90 -133 142 -210 101 -149 220 -323
337 -495 39 -58 114 -168 166 -245 51 -77 98 -143 104 -147 5 -4 8 -8 5 -9
-14 -3 -79 -7 -210 -13 -80 -4 -165 -9 -190 -11 -25 -2 -108 -6 -185 -10 -77
-4 -157 -8 -177 -10 -38 -3 -39 -2 -254 238 -119 133 -235 262 -258 287 -153
168 -206 229 -206 236 0 5 83 64 183 131 100 67 252 169 337 226 85 58 156
104 156 103 1 0 23 -32 50 -71z m-2955 -325 c52 -63 99 -122 106 -130 10 -14
7 -16 -25 -16 -32 -1 -231 -10 -354 -17 -21 -1 -38 -1 -38 1 0 3 23 35 50 73
28 38 50 73 50 79 0 5 3 10 8 10 4 1 27 30 52 65 25 35 48 61 51 57 3 -4 48
-59 100 -122z m2175 -104 c-15 -33 -54 -120 -91 -201 -12 -27 -37 -84 -55
-125 -18 -41 -49 -111 -69 -155 -21 -44 -59 -131 -86 -192 l-49 -113 -50 -1
c-28 -1 -67 -2 -86 -4 -19 -1 -100 -6 -180 -10 -80 -4 -161 -9 -180 -10 -27
-2 -316 -16 -340 -17 -3 0 -8 0 -12 1 -4 0 9 36 28 79 20 42 42 91 49 107 7
17 28 62 45 100 17 39 77 171 132 295 56 124 104 228 107 232 4 4 65 10 136
13 72 3 168 8 215 10 47 2 150 7 230 10 80 4 146 7 147 8 1 1 29 3 62 3 l60 2
-13 -32z m164 -121 c25 -28 81 -90 125 -140 44 -49 82 -92 85 -95 3 -3 46 -50
95 -105 50 -55 106 -118 127 -140 67 -74 107 -120 105 -121 -1 -1 -51 -5 -112
-9 -60 -3 -139 -8 -175 -10 -36 -2 -117 -7 -180 -10 -63 -4 -142 -8 -175 -10
-33 -2 -118 -7 -190 -10 -71 -4 -145 -8 -163 -10 -22 -2 -32 1 -28 9 10 24
318 713 331 743 8 17 15 37 15 45 0 12 35 -22 140 -137z m-1120 104 c0 -5 -63
-146 -279 -624 -10 -22 -28 -64 -41 -92 -13 -29 -26 -53 -29 -53 -3 1 -20 20
-38 43 -18 23 -61 76 -95 118 -35 42 -116 141 -181 220 -65 79 -128 155 -141
169 -59 67 -146 180 -139 181 16 1 171 8 303 14 74 3 171 8 215 10 44 2 143 7
220 10 77 3 140 7 141 8 5 5 64 1 64 -4z m-1076 -51 c2 -3 230 -281 257 -313
40 -47 277 -335 309 -376 19 -24 50 -60 68 -81 l33 -37 -196 -131 c-108 -72
-202 -133 -209 -136 -8 -3 -57 62 -127 168 -63 95 -116 175 -119 178 -3 3 -9
13 -15 22 -5 10 -108 164 -228 343 -120 179 -220 331 -223 339 -3 8 5 13 23
13 82 1 378 16 381 18 4 4 44 -3 46 -7z m-64 -648 c111 -159 297 -447 292
-451 -4 -4 -218 -147 -475 -318 l-468 -312 5 38 c4 21 8 52 11 68 3 17 7 46 9
65 8 64 18 135 21 156 2 12 7 48 11 80 4 33 9 61 9 64 1 3 5 32 9 65 5 33 10
69 12 80 2 11 7 40 10 65 3 25 12 86 19 135 8 50 17 113 20 140 4 28 8 61 10
74 3 14 11 75 20 135 9 61 18 127 21 146 18 129 24 170 29 210 3 25 7 56 9 70
3 14 8 43 11 64 l6 39 200 -299 c109 -164 203 -306 209 -314z m3600 -147 c-34
-43 -69 -87 -78 -98 -19 -23 -215 -268 -220 -275 -5 -7 -85 78 -277 295 -38
43 -79 87 -89 97 -11 10 -16 19 -10 19 14 3 66 6 210 13 71 4 150 9 174 11 24
2 109 7 189 10 81 4 148 9 150 11 2 2 6 2 9 -1 2 -2 -24 -39 -58 -82z m-693
23 c4 -7 46 -55 93 -107 47 -51 129 -142 183 -201 54 -59 95 -112 92 -118 -20
-32 -429 -537 -443 -547 -15 -10 -251 -77 -652 -183 -58 -16 -213 -58 -345
-94 -132 -36 -245 -66 -250 -66 -6 0 -21 19 -33 42 -12 24 -35 68 -52 98 -129
228 -150 267 -150 284 0 8 18 53 40 101 22 47 46 101 54 118 7 18 24 55 36 82
12 28 52 115 87 195 36 80 77 172 92 205 15 33 36 79 46 103 l19 42 55 1 c31
0 74 2 95 4 22 2 99 6 170 10 72 4 160 8 196 11 101 6 212 12 365 19 77 4 141
8 142 9 1 0 35 2 77 3 55 2 77 -1 83 -11z m-1218 -61 c-2 -17 -17 -52 -57
-138 -22 -45 -43 -93 -47 -107 -4 -14 -11 -29 -15 -35 -4 -5 -38 -80 -75 -165
-38 -85 -85 -191 -105 -235 -20 -44 -40 -90 -44 -102 -10 -32 -18 -29 -42 15
-11 20 -107 191 -213 380 -106 189 -191 346 -188 349 6 5 26 7 242 18 72 4
157 8 190 10 33 2 116 6 185 10 69 3 126 8 128 9 7 8 42 0 41 -9z m1967 -92
c-3 -21 -8 -58 -11 -83 -3 -25 -8 -56 -10 -70 -3 -14 -7 -47 -10 -75 -3 -27
-8 -57 -10 -65 -2 -8 -7 -40 -10 -70 -3 -30 -10 -82 -15 -115 -6 -33 -10 -64
-10 -68 0 -5 -4 -7 -8 -5 -15 5 -203 221 -200 228 4 9 282 359 286 359 2 1 1
-16 -2 -36z m-2620 -408 c130 -231 237 -425 237 -430 0 -9 -89 -215 -177 -406
l-21 -47 -342 512 c-188 281 -344 518 -347 526 -4 11 53 53 196 148 111 72
205 129 210 124 4 -4 114 -196 244 -427z m-308 -402 c177 -265 322 -484 322
-486 0 -2 -42 7 -92 19 -134 32 -320 75 -343 80 -45 9 -30 6 -345 79 -135 31
-252 58 -260 60 -233 51 -472 112 -532 136 l-77 31 297 197 c163 108 378 251
477 317 l180 120 26 -35 c14 -20 170 -253 347 -518z m2737 342 c64 -72 100
-122 100 -136 0 -21 -13 -26 -155 -65 -85 -23 -206 -56 -268 -73 -62 -17 -117
-31 -122 -31 -6 0 65 94 157 210 93 115 173 209 178 209 6 0 55 -52 110 -114z
m35 -208 c-8 -8 -114 -92 -235 -188 -197 -156 -361 -286 -406 -324 -10 -7 -48
-37 -85 -67 -38 -29 -78 -60 -89 -70 -43 -35 -104 -84 -141 -113 -21 -16 -63
-50 -94 -76 -30 -25 -61 -49 -69 -53 -7 -5 123 163 290 372 l304 381 55 17
c49 15 468 131 480 133 2 1 -2 -5 -10 -12z m-690 -181 c0 -3 -6 -11 -13 -18
-7 -7 -28 -33 -47 -58 -19 -25 -37 -47 -40 -50 -4 -3 -87 -106 -186 -230 -98
-124 -187 -234 -196 -245 -9 -11 -89 -112 -178 -223 -89 -112 -166 -200 -170
-195 -6 6 -156 273 -323 573 -11 19 -30 53 -43 76 l-24 41 103 27 c56 15 131
35 167 46 78 23 237 66 590 160 146 39 283 77 305 84 47 16 55 17 55 12z
m-1480 -73 c16 -32 40 -76 53 -98 53 -91 91 -164 87 -168 -10 -8 -361 -99
-366 -95 -2 3 25 67 59 144 35 76 77 169 92 207 16 37 33 67 37 67 4 0 21 -26
38 -57z m-1476 -114 c50 -11 98 -22 106 -24 8 -2 146 -33 305 -70 160 -37 299
-69 310 -71 11 -2 49 -11 84 -20 36 -9 72 -17 80 -19 40 -8 212 -48 271 -62
48 -13 87 -32 150 -78 200 -144 576 -418 585 -427 10 -9 -25 2 -80 27 -16 7
-241 97 -500 199 -259 102 -648 255 -865 341 -217 86 -431 170 -475 187 -44
17 -84 35 -90 41 -7 7 -4 8 9 3 11 -4 60 -16 110 -27z m1763 -401 c72 -128
143 -255 159 -283 15 -27 38 -67 51 -87 13 -21 19 -38 15 -38 -8 0 -141 96
-560 403 -84 62 -157 114 -163 115 -23 8 -4 20 56 37 35 9 67 17 69 17 3 1 56
15 118 33 62 18 116 33 119 34 3 1 64 -104 136 -231z"/>
</g>
</svg>
